<svg width="169" height="35" viewBox="0 0 169 35" fill="none" xmlns="http://www.w3.org/2000/svg">
<path d="M4.24432 27H0.920455L10.5341 0.818181H13.8068L23.4205 27H20.0966L12.2727 4.96023H12.0682L4.24432 27ZM5.47159 16.7727H18.8693V19.5852H5.47159V16.7727ZM27.4986 27V0.818181H30.669V24.1875H42.8395V27H27.4986ZM47.7486 27V0.818181H50.919V13.8068H51.2259L62.9872 0.818181H67.1293L56.1349 12.6307L67.1293 27H63.294L54.1918 14.8295L50.919 18.5114V27H47.7486ZM72.3068 27H68.983L78.5966 0.818181H81.8693L91.483 27H88.1591L80.3352 4.96023H80.1307L72.3068 27ZM73.5341 16.7727H86.9318V19.5852H73.5341V16.7727Z" fill="black"/>
<path d="M94.6662 27V0.818181H105.149C107.075 0.818181 108.682 1.10369 109.969 1.67472C111.256 2.24574 112.223 3.03835 112.871 4.05256C113.518 5.05824 113.842 6.21733 113.842 7.52983C113.842 8.55256 113.638 9.4517 113.229 10.2273C112.82 10.9943 112.257 11.625 111.541 12.1193C110.834 12.6051 110.024 12.9503 109.112 13.1548V13.4105C110.109 13.4531 111.043 13.7344 111.912 14.2543C112.79 14.7741 113.501 15.5028 114.047 16.4403C114.592 17.3693 114.865 18.4773 114.865 19.7642C114.865 21.1534 114.52 22.3935 113.83 23.4844C113.148 24.5668 112.138 25.4233 110.8 26.054C109.462 26.6847 107.813 27 105.852 27H94.6662ZM100.202 22.4744H104.714C106.257 22.4744 107.382 22.1804 108.089 21.5923C108.797 20.9957 109.151 20.2031 109.151 19.2145C109.151 18.4901 108.976 17.8509 108.626 17.2969C108.277 16.7429 107.778 16.3082 107.131 15.9929C106.491 15.6776 105.729 15.5199 104.842 15.5199H100.202V22.4744ZM100.202 11.7741H104.305C105.064 11.7741 105.737 11.642 106.325 11.3778C106.922 11.1051 107.391 10.7216 107.732 10.2273C108.081 9.73295 108.256 9.14062 108.256 8.45028C108.256 7.50426 107.919 6.74148 107.246 6.16193C106.581 5.58239 105.635 5.29261 104.408 5.29261H100.202V11.7741Z" fill="#D6CE11"/>
<path d="M123.811 0.818181V27H118.365V0.818181H123.811ZM137.045 27.3835C135.06 27.3835 133.342 26.9616 131.893 26.1179C130.453 25.2656 129.341 24.081 128.557 22.5639C127.773 21.0384 127.381 19.2699 127.381 17.2585C127.381 15.2301 127.773 13.4574 128.557 11.9403C129.341 10.4148 130.453 9.23011 131.893 8.38636C133.342 7.53409 135.06 7.10795 137.045 7.10795C139.031 7.10795 140.744 7.53409 142.185 8.38636C143.634 9.23011 144.75 10.4148 145.534 11.9403C146.318 13.4574 146.71 15.2301 146.71 17.2585C146.71 19.2699 146.318 21.0384 145.534 22.5639C144.75 24.081 143.634 25.2656 142.185 26.1179C140.744 26.9616 139.031 27.3835 137.045 27.3835ZM137.071 23.1648C137.974 23.1648 138.729 22.9091 139.334 22.3977C139.939 21.8778 140.395 21.1705 140.702 20.2756C141.017 19.3807 141.175 18.3622 141.175 17.2202C141.175 16.0781 141.017 15.0597 140.702 14.1648C140.395 13.2699 139.939 12.5625 139.334 12.0426C138.729 11.5227 137.974 11.2628 137.071 11.2628C136.159 11.2628 135.392 11.5227 134.77 12.0426C134.156 12.5625 133.692 13.2699 133.376 14.1648C133.07 15.0597 132.916 16.0781 132.916 17.2202C132.916 18.3622 133.07 19.3807 133.376 20.2756C133.692 21.1705 134.156 21.8778 134.77 22.3977C135.392 22.9091 136.159 23.1648 137.071 23.1648ZM159.098 34.7727C157.334 34.7727 155.821 34.5298 154.56 34.044C153.307 33.5668 152.31 32.9148 151.568 32.0881C150.827 31.2614 150.345 30.3324 150.124 29.3011L155.161 28.6236C155.314 29.0156 155.557 29.3821 155.889 29.723C156.222 30.0639 156.661 30.3366 157.206 30.5412C157.76 30.7543 158.433 30.8608 159.226 30.8608C160.411 30.8608 161.386 30.571 162.153 29.9915C162.929 29.4205 163.317 28.4616 163.317 27.1151V23.5227H163.087C162.848 24.0682 162.49 24.5838 162.013 25.0696C161.536 25.5554 160.922 25.9517 160.172 26.2585C159.422 26.5653 158.527 26.7188 157.487 26.7188C156.013 26.7188 154.67 26.3778 153.46 25.696C152.259 25.0057 151.3 23.9531 150.584 22.5384C149.876 21.1151 149.523 19.3168 149.523 17.1435C149.523 14.919 149.885 13.0611 150.609 11.5696C151.334 10.0781 152.297 8.96165 153.499 8.22017C154.709 7.47869 156.034 7.10795 157.474 7.10795C158.574 7.10795 159.494 7.29545 160.236 7.67045C160.977 8.03693 161.574 8.49716 162.026 9.05114C162.486 9.59659 162.839 10.1335 163.087 10.6619H163.291V7.36364H168.699V27.1918C168.699 28.8622 168.29 30.2599 167.472 31.3849C166.653 32.5099 165.52 33.3537 164.071 33.9162C162.631 34.4872 160.973 34.7727 159.098 34.7727ZM159.213 22.6278C160.091 22.6278 160.832 22.4105 161.438 21.9759C162.051 21.5327 162.52 20.902 162.844 20.0838C163.176 19.2571 163.342 18.2685 163.342 17.1179C163.342 15.9673 163.18 14.9702 162.857 14.1264C162.533 13.2741 162.064 12.6136 161.45 12.1449C160.837 11.6761 160.091 11.4418 159.213 11.4418C158.318 11.4418 157.564 11.6847 156.95 12.1705C156.337 12.6477 155.872 13.3125 155.557 14.1648C155.241 15.017 155.084 16.0014 155.084 17.1179C155.084 18.2514 155.241 19.2315 155.557 20.0582C155.881 20.8764 156.345 21.5114 156.95 21.9631C157.564 22.4062 158.318 22.6278 159.213 22.6278Z" fill="#D6CE11" fill-opacity="0.96"/>
</svg>
